<svg id="svg" version="1.1" xmlns="http://www.w3.org/2000/svg" xmlns:xlink="http://www.w3.org/1999/xlink" width="400" height="378.3783783783784" viewBox="0, 0, 400,378.3783783783784"><g id="svgg"><path id="path0" d="M28.504 105.088 C 26.573 105.464,26.679 100.416,26.679 191.719 C 26.679 273.062,26.710 277.014,27.355 277.659 C 28.327 278.631,80.521 278.914,81.985 277.955 L 82.876 277.371 82.876 213.615 C 82.876 150.363,82.882 149.852,83.633 149.101 C 84.611 148.123,94.672 147.944,95.954 148.881 C 96.675 149.409,96.692 150.616,96.878 213.385 C 97.031 265.166,97.161 277.445,97.559 277.843 C 98.442 278.726,151.132 278.548,152.020 277.659 C 152.663 277.017,152.701 273.855,152.792 213.137 C 152.880 153.707,152.931 149.258,153.526 148.817 C 154.619 148.009,165.454 148.167,166.469 149.007 L 167.269 149.669 167.362 231.599 L 167.455 313.529 168.302 315.610 C 170.964 322.154,178.023 327.767,187.216 330.651 L 190.539 331.693 275.532 331.795 L 360.525 331.896 361.530 331.105 L 362.535 330.314 362.535 310.123 L 362.535 289.932 361.538 289.148 L 360.541 288.363 292.344 288.363 C 226.757 288.363,224.124 288.337,223.521 287.671 C 222.943 287.032,222.895 280.873,222.895 206.756 C 222.895 118.069,223.090 125.092,220.495 120.151 C 213.290 106.428,190.366 101.135,165.941 107.555 C 161.591 108.699,157.696 110.782,154.138 113.868 C 150.382 117.127,150.160 117.140,147.279 114.294 C 144.820 111.866,140.954 109.206,138.007 107.915 C 125.129 102.272,97.829 104.845,86.803 112.740 C 84.436 114.435,84.448 114.431,83.633 113.915 C 83.211 113.649,83.017 112.559,82.876 109.673 C 82.697 105.998,82.636 105.765,81.741 105.313 C 80.833 104.856,30.785 104.644,28.504 105.088 M257.900 105.196 C 245.679 106.332,237.634 112.944,236.483 122.800 C 235.859 128.140,236.067 156.922,236.735 157.589 C 237.264 158.118,240.274 158.184,264.171 158.184 C 295.777 158.184,292.526 158.767,292.526 153.096 C 292.526 148.326,292.500 148.344,299.380 148.344 C 303.908 148.344,304.663 148.434,305.445 149.068 L 306.339 149.791 306.339 159.056 C 306.339 167.522,306.279 168.388,305.642 169.091 C 304.959 169.846,304.503 169.863,281.045 170.003 L 257.143 170.145 253.001 171.184 C 242.858 173.726,237.504 179.105,236.510 187.753 C 236.037 191.866,236.031 256.522,236.503 260.629 C 237.512 269.403,243.106 274.923,253.565 277.465 L 257.143 278.335 309.302 278.335 C 360.497 278.335,361.471 278.321,361.998 277.600 C 362.837 276.453,362.796 127.833,361.955 122.648 C 360.498 113.660,355.684 108.829,345.439 106.071 L 341.533 105.019 301.230 104.967 C 279.063 104.938,259.565 105.041,257.900 105.196 M305.664 209.001 C 306.283 209.621,306.339 210.674,306.339 221.807 L 306.339 233.936 305.445 234.660 C 304.663 235.293,303.908 235.383,299.380 235.383 C 291.807 235.383,292.526 236.811,292.526 221.760 L 292.526 209.314 293.377 208.707 C 294.671 207.783,304.688 208.023,305.664 209.001 " stroke="none" fill="#046b63" fill-rule="evenodd"></path><path id="path1" d="M0.000 189.215 L 0.000 378.430 200.000 378.430 L 400.000 378.430 400.000 189.215 L 400.000 0.000 200.000 0.000 L 0.000 0.000 0.000 189.215 M81.741 105.313 C 82.636 105.765,82.697 105.998,82.876 109.673 C 83.017 112.559,83.211 113.649,83.633 113.915 C 84.448 114.431,84.436 114.435,86.803 112.740 C 97.829 104.845,125.129 102.272,138.007 107.915 C 140.954 109.206,144.820 111.866,147.279 114.294 C 150.160 117.140,150.382 117.127,154.138 113.868 C 157.696 110.782,161.591 108.699,165.941 107.555 C 190.366 101.135,213.290 106.428,220.495 120.151 C 223.090 125.092,222.895 118.069,222.895 206.756 C 222.895 280.873,222.943 287.032,223.521 287.671 C 224.124 288.337,226.757 288.363,292.344 288.363 L 360.541 288.363 361.538 289.148 L 362.535 289.932 362.535 310.123 L 362.535 330.314 361.530 331.105 L 360.525 331.896 275.532 331.795 L 190.539 331.693 187.216 330.651 C 178.023 327.767,170.964 322.154,168.302 315.610 L 167.455 313.529 167.362 231.599 L 167.269 149.669 166.469 149.007 C 165.454 148.167,154.619 148.009,153.526 148.817 C 152.931 149.258,152.880 153.707,152.792 213.137 C 152.701 273.855,152.663 277.017,152.020 277.659 C 151.132 278.548,98.442 278.726,97.559 277.843 C 97.161 277.445,97.031 265.166,96.878 213.385 C 96.692 150.616,96.675 149.409,95.954 148.881 C 94.672 147.944,84.611 148.123,83.633 149.101 C 82.882 149.852,82.876 150.363,82.876 213.615 L 82.876 277.371 81.985 277.955 C 80.521 278.914,28.327 278.631,27.355 277.659 C 26.710 277.014,26.679 273.062,26.679 191.719 C 26.679 100.416,26.573 105.464,28.504 105.088 C 30.785 104.644,80.833 104.856,81.741 105.313 M345.439 106.071 C 355.684 108.829,360.498 113.660,361.955 122.648 C 362.796 127.833,362.837 276.453,361.998 277.600 C 361.471 278.321,360.497 278.335,309.302 278.335 L 257.143 278.335 253.565 277.465 C 243.106 274.923,237.512 269.403,236.503 260.629 C 236.031 256.522,236.037 191.866,236.510 187.753 C 237.504 179.105,242.858 173.726,253.001 171.184 L 257.143 170.145 281.045 170.003 C 304.503 169.863,304.959 169.846,305.642 169.091 C 306.279 168.388,306.339 167.522,306.339 159.056 L 306.339 149.791 305.445 149.068 C 304.663 148.434,303.908 148.344,299.380 148.344 C 292.500 148.344,292.526 148.326,292.526 153.096 C 292.526 158.767,295.777 158.184,264.171 158.184 C 240.274 158.184,237.264 158.118,236.735 157.589 C 236.067 156.922,235.859 128.140,236.483 122.800 C 237.431 114.678,242.194 109.413,251.086 106.653 C 256.626 104.933,257.309 104.910,301.230 104.967 L 341.533 105.019 345.439 106.071 M293.377 208.707 L 292.526 209.314 292.526 221.760 C 292.526 236.811,291.807 235.383,299.380 235.383 C 303.908 235.383,304.663 235.293,305.445 234.660 L 306.339 233.936 306.339 221.807 C 306.339 210.674,306.283 209.621,305.664 209.001 C 304.688 208.023,294.671 207.783,293.377 208.707 " stroke="none" fill="#040404" fill-rule="evenodd"></path></g></svg>